<svg width="15" height="15" viewBox="0 0 15 15" fill="none" xmlns="http://www.w3.org/2000/svg">
<path d="M13.1182 8.35397C13.1182 8.08835 13.0088 7.83054 12.8291 7.64304L7.74316 2.5571C7.55566 2.3696 7.29785 2.26804 7.03223 2.26804C6.7666 2.26804 6.50879 2.3696 6.3291 2.5571L1.24316 7.64304C1.05566 7.83054 0.946289 8.08835 0.946289 8.35397C0.946289 8.6196 1.05566 8.8696 1.24316 9.0571L1.8291 9.64304C2.00879 9.83054 2.2666 9.93991 2.53223 9.93991C2.79785 9.93991 3.05566 9.83054 3.23535 9.64304L5.53223 7.35397V12.854C5.53223 13.4165 6.00098 13.768 6.53223 13.768H7.53223C8.06348 13.768 8.53223 13.4165 8.53223 12.854V7.35397L10.8291 9.64304C11.0088 9.83054 11.2666 9.93991 11.5322 9.93991C11.7979 9.93991 12.0557 9.83054 12.2432 9.64304L12.8291 9.0571C13.0088 8.8696 13.1182 8.6196 13.1182 8.35397Z" fill="#2DCE89"/>
</svg>
