<svg width="20" height="20" viewBox="0 0 20 20" fill="none" xmlns="http://www.w3.org/2000/svg">
<path d="M15.7684 8.94531C15.1612 8.81941 14.794 9.04583 14.5902 9.26452C14.5047 9.35627 14.3561 9.32169 14.3237 9.20053C14.173 8.63672 13.7051 8.18661 13.1071 8.1316C12.4553 8.07165 12.0221 8.39941 11.7845 8.66181C11.7001 8.75504 11.5478 8.72044 11.5171 8.59848C11.3729 8.02458 10.9004 7.56437 10.2946 7.5066C9.70849 7.45072 9.18736 7.7549 8.92663 8.2238C8.87875 8.30986 8.75021 8.28012 8.75021 8.18165V2.09167C8.75021 1.35721 8.21326 0.701331 7.48209 0.6316C6.64336 0.551625 5.93771 1.20903 5.93771 2.03125V10.9375C5.93771 11.1102 5.79794 11.25 5.62521 11.25C5.45249 11.25 5.31271 11.1102 5.31271 10.9375V9.0625H4.37521C3.68485 9.0625 3.12521 9.62213 3.12521 10.3125V14.0625C3.12521 16.0417 5.31271 17.4609 5.31271 19.0625H15.0002C15.0002 19.0625 16.8752 15.2344 16.8752 10.3125C16.8752 9.49219 16.3473 9.0653 15.7684 8.94531Z" fill="white"/>
</svg>
