<svg width="16" height="16" viewBox="0 0 16 16" fill="none" xmlns="http://www.w3.org/2000/svg">
<path d="M13.1417 9.14286C13.1417 9.125 13.1417 9.10714 13.1328 9.08929L7.99888 4.85714L2.86496 9.08929C2.86496 9.10714 2.85603 9.125 2.85603 9.14286V13.4286C2.85603 13.7411 3.11496 14 3.42746 14H6.85603V10.5714H9.14174V14H12.5703C12.8828 14 13.1417 13.7411 13.1417 13.4286V9.14286ZM15.1328 8.52679C15.231 8.41071 15.2132 8.22321 15.0971 8.125L13.1417 6.5V2.85714C13.1417 2.69643 13.0167 2.57143 12.856 2.57143H11.1417C10.981 2.57143 10.856 2.69643 10.856 2.85714V4.59821L8.67746 2.77678C8.30246 2.46428 7.69531 2.46428 7.32031 2.77678L0.90067 8.125C0.784598 8.22321 0.766741 8.41071 0.864955 8.52679L1.41853 9.1875C1.46317 9.24107 1.5346 9.27679 1.60603 9.28571C1.68638 9.29464 1.75781 9.26786 1.82031 9.22321L7.99888 4.07143L14.1775 9.22321C14.231 9.26786 14.2935 9.28571 14.365 9.28571C14.3739 9.28571 14.3828 9.28571 14.3917 9.28571C14.4632 9.27679 14.5346 9.24107 14.5792 9.1875L15.1328 8.52679Z" fill="#F6F9FC"/>
</svg>
