<svg width="15" height="15" viewBox="0 0 15 15" fill="none" xmlns="http://www.w3.org/2000/svg">
<path d="M10.3868 7.09164C10.3868 9.02132 8.81645 10.5916 6.88676 10.5916C4.95708 10.5916 3.38676 9.02132 3.38676 7.09164C3.38676 5.16195 4.95708 3.59164 6.88676 3.59164C8.81645 3.59164 10.3868 5.16195 10.3868 7.09164ZM14.3868 13.5916C14.3868 13.326 14.2774 13.0682 14.0977 12.8885L11.418 10.2088C12.0508 9.29476 12.3868 8.20101 12.3868 7.09164C12.3868 4.05257 9.92583 1.59164 6.88676 1.59164C3.8477 1.59164 1.38676 4.05257 1.38676 7.09164C1.38676 10.1307 3.8477 12.5916 6.88676 12.5916C7.99614 12.5916 9.08989 12.2557 10.004 11.6229L12.6836 14.2948C12.8633 14.4823 13.1211 14.5916 13.3868 14.5916C13.9336 14.5916 14.3868 14.1385 14.3868 13.5916Z" fill="black" fill-opacity="0.6"/>
</svg>
