<svg width="16" height="16" viewBox="0 0 16 16" fill="none" xmlns="http://www.w3.org/2000/svg">
<path d="M14.9998 4.33322H12.3331V11.6666C12.3331 12.0349 12.0348 12.3332 11.6665 12.3332H4.33313V14.9999C4.33313 15.3682 4.63146 15.6666 4.9998 15.6666H14.9998C15.3681 15.6666 15.6665 15.3682 15.6665 14.9999V4.99989C15.6665 4.63155 15.3681 4.33322 14.9998 4.33322Z" fill="white" fill-opacity="0.95"/>
<path d="M10.9993 11.6665H0.999308C0.630975 11.6665 0.332642 11.3681 0.332642 10.9998V0.999816C0.332642 0.631482 0.630975 0.333149 0.999308 0.333149H10.9993C11.3676 0.333149 11.666 0.631482 11.666 0.999816V10.9998C11.666 11.3681 11.3676 11.6665 10.9993 11.6665Z" fill="white" fill-opacity="0.95"/>
</svg>
