<svg width="8" height="9" viewBox="0 0 8 9" fill="none" xmlns="http://www.w3.org/2000/svg">
<path d="M7.08008 4.63477C7.08008 5.59961 6.90039 6.40625 6.54102 7.05469C6.18164 7.69922 5.66016 8.18555 4.97656 8.51367C4.29297 8.83789 3.46875 9 2.50391 9H0.125V0.433594H2.76172C3.64844 0.433594 4.41406 0.59375 5.05859 0.914062C5.70312 1.23047 6.20117 1.70117 6.55273 2.32617C6.9043 2.94727 7.08008 3.7168 7.08008 4.63477ZM5.61523 4.67578C5.61523 3.97266 5.50391 3.39453 5.28125 2.94141C5.0625 2.48828 4.73828 2.15234 4.30859 1.93359C3.88281 1.71094 3.35742 1.59961 2.73242 1.59961H1.53125V7.82227H2.52734C3.5625 7.82227 4.33594 7.55859 4.84766 7.03125C5.35938 6.50391 5.61523 5.71875 5.61523 4.67578Z" fill="#8898AA"/>
</svg>
