<svg width="17" height="16" viewBox="0 0 17 16" fill="none" xmlns="http://www.w3.org/2000/svg">
<path d="M3.34387 8.93753V14.5625H13.6564V8.93753" stroke="#5E72E4" stroke-width="1.2" stroke-miterlimit="10" stroke-linecap="square"/>
<path d="M15.5188 5.65626C15.4611 6.17198 15.2154 6.64835 14.8285 6.99426C14.4417 7.34018 13.941 7.53136 13.422 7.53126C13.107 7.52639 12.7968 7.45251 12.5133 7.31484C12.2299 7.17716 11.98 6.97903 11.7814 6.73439C11.5856 6.98215 11.3363 7.18249 11.0522 7.32047C10.7682 7.45845 10.4566 7.53051 10.1408 7.53126C9.82554 7.52727 9.51506 7.45379 9.23148 7.31605C8.9479 7.17831 8.69819 6.9797 8.50016 6.73439C8.30213 6.9797 8.05242 7.17831 7.76884 7.31605C7.48526 7.45379 7.17478 7.52727 6.85954 7.53126C6.54372 7.53051 6.23216 7.45845 5.94808 7.32047C5.664 7.18249 5.41475 6.98215 5.21891 6.73439C5.01878 6.97732 4.76863 7.17426 4.48551 7.31177C4.20239 7.44929 3.89296 7.52415 3.57829 7.53126C3.05936 7.53136 2.5586 7.34018 2.17178 6.99426C1.78496 6.64835 1.53923 6.17198 1.48157 5.65626L4.28141 1.43752H12.7189L15.5188 5.65626Z" stroke="#5E72E4" stroke-width="1.2" stroke-miterlimit="10" stroke-linecap="square"/>
<path d="M7.09387 14.5626V10.8126H9.90637V14.5626" stroke="#5E72E4" stroke-width="1.2" stroke-miterlimit="10"/>
</svg>
