<svg width="15" height="16" viewBox="0 0 15 16" fill="none" xmlns="http://www.w3.org/2000/svg">
<path d="M11.0156 1.43752H3.97219C3.57287 1.43832 3.17762 1.51776 2.809 1.67132C2.44038 1.82487 2.10562 2.04952 1.82382 2.33245C1.54202 2.61538 1.31871 2.95104 1.16664 3.32027C1.01456 3.68951 0.936705 4.08507 0.937506 4.4844V4.49658C0.938306 4.89591 1.01775 5.29116 1.1713 5.65978C1.32485 6.0284 1.54951 6.36316 1.83244 6.64496C2.11537 6.92675 2.45103 7.15007 2.82026 7.30214C3.18949 7.45421 3.58506 7.53207 3.98438 7.53127H11.0278C11.4271 7.53047 11.8224 7.45103 12.191 7.29748C12.5596 7.14392 12.8944 6.91927 13.1762 6.63634C13.458 6.35341 13.6813 6.01775 13.8334 5.64852C13.9854 5.27929 14.0633 4.88372 14.0625 4.4844V4.47221C14.0617 4.07289 13.9823 3.67763 13.8287 3.30902C13.6752 2.9404 13.4505 2.60563 13.1676 2.32383C12.8846 2.04204 12.549 1.81873 12.1798 1.66665C11.8105 1.51458 11.415 1.43672 11.0156 1.43752ZM3.98438 6.82815C3.52083 6.82815 3.06769 6.69069 2.68226 6.43315C2.29684 6.17562 1.99643 5.80958 1.81904 5.38131C1.64165 4.95305 1.59523 4.4818 1.68567 4.02715C1.7761 3.57251 1.99932 3.15489 2.3271 2.82711C2.65488 2.49934 3.07249 2.27612 3.52714 2.18568C3.98178 2.09525 4.45303 2.14166 4.8813 2.31905C5.30956 2.49645 5.6756 2.79685 5.93314 3.18228C6.19067 3.56771 6.32813 4.02085 6.32813 4.4844C6.32813 5.106 6.0812 5.70214 5.64166 6.14168C5.20212 6.58122 4.60598 6.82815 3.98438 6.82815Z" fill="#11CDEF"/>
<path d="M11.0278 8.46886H3.98438C3.58506 8.46806 3.18949 8.54592 2.82026 8.698C2.45103 8.85007 2.11537 9.07338 1.83244 9.35518C1.54951 9.63697 1.32485 9.97174 1.1713 10.3404C1.01775 10.709 0.938306 11.1042 0.937506 11.5036V11.5157C0.936705 11.9151 1.01456 12.3106 1.16664 12.6799C1.31871 13.0491 1.54202 13.3848 1.82382 13.6677C2.10562 13.9506 2.44038 14.1753 2.809 14.3288C3.17762 14.4824 3.57287 14.5618 3.97219 14.5626H11.0156C11.415 14.5634 11.8105 14.4856 12.1798 14.3335C12.549 14.1814 12.8846 13.9581 13.1676 13.6763C13.4505 13.3945 13.6752 13.0597 13.8287 12.6911C13.9823 12.3225 14.0617 11.9272 14.0625 11.5279V11.5157C14.0633 11.1164 13.9854 10.7208 13.8334 10.3516C13.6813 9.98239 13.458 9.64672 13.1762 9.36379C12.8944 9.08087 12.5596 8.85621 12.191 8.70266C11.8224 8.54911 11.4271 8.46966 11.0278 8.46886ZM11.0156 13.8595C10.5521 13.8595 10.0989 13.722 9.71351 13.4645C9.32808 13.207 9.02768 12.8409 8.85029 12.4127C8.67289 11.9844 8.62648 11.5131 8.71692 11.0585C8.80735 10.6039 9.03057 10.1862 9.35835 9.85846C9.68613 9.53068 10.1037 9.30746 10.5584 9.21702C11.013 9.12659 11.4843 9.173 11.9125 9.3504C12.3408 9.52779 12.7069 9.82819 12.9644 10.2136C13.2219 10.599 13.3594 11.0522 13.3594 11.5157C13.3594 12.1373 13.1125 12.7335 12.6729 13.173C12.2334 13.6126 11.6372 13.8595 11.0156 13.8595Z" fill="#11CDEF"/>
</svg>
