<svg width="15" height="16" viewBox="0 0 15 16" fill="none" xmlns="http://www.w3.org/2000/svg">
<path d="M13.3596 13.8593H12.4221V2.60933C12.4221 2.35034 12.2124 2.14058 11.9534 2.14058H2.81274V1.20308C2.81274 0.944095 3.02251 0.734329 3.28149 0.734329H13.3596C13.6186 0.734329 13.8284 0.944095 13.8284 1.20308V13.3906C13.8284 13.6496 13.6186 13.8593 13.3596 13.8593Z" fill="#F3A4B5"/>
<path d="M11.4846 2.60941H1.64087C1.38188 2.60941 1.17212 2.81917 1.17212 3.07816V14.7969C1.17212 15.0559 1.38188 15.2657 1.64087 15.2657H11.4846C11.7436 15.2657 11.9534 15.0559 11.9534 14.7969V3.07816C11.9534 2.81917 11.7436 2.60941 11.4846 2.60941ZM5.62524 11.9844H3.75024C3.62087 11.9844 3.51587 11.8794 3.51587 11.75C3.51587 11.6207 3.62087 11.5157 3.75024 11.5157H5.62524C5.75462 11.5157 5.85962 11.6207 5.85962 11.75C5.85962 11.8794 5.75462 11.9844 5.62524 11.9844ZM9.37524 9.17191H3.75024C3.62087 9.17191 3.51587 9.06691 3.51587 8.93753C3.51587 8.80816 3.62087 8.70316 3.75024 8.70316H9.37524C9.50462 8.70316 9.60962 8.80816 9.60962 8.93753C9.60962 9.06691 9.50462 9.17191 9.37524 9.17191ZM9.37524 6.35941H3.75024C3.62087 6.35941 3.51587 6.25441 3.51587 6.12503C3.51587 5.99566 3.62087 5.89066 3.75024 5.89066H9.37524C9.50462 5.89066 9.60962 5.99566 9.60962 6.12503C9.60962 6.25441 9.50462 6.35941 9.37524 6.35941Z" fill="#F3A4B5"/>
</svg>
