<svg width="15" height="16" viewBox="0 0 15 16" fill="none" xmlns="http://www.w3.org/2000/svg">
<path d="M10.7812 1.29697L7.73438 2.91415V14.7032L10.7812 13.086V1.29697Z" fill="#5E72E4"/>
<path d="M7.26562 2.91415L4.21875 1.29697V13.086L7.26562 14.7032V2.91415Z" fill="#5E72E4"/>
<path d="M3.75 1.29697L0.351562 3.10165C0.28125 3.14853 0.234375 3.21884 0.234375 3.31259V14.5626C0.234375 14.6563 0.28125 14.7267 0.351562 14.7735C0.421875 14.8204 0.515625 14.8204 0.585938 14.7735L3.75 13.086V1.29697Z" fill="#5E72E4"/>
<path d="M14.6484 3.10165L11.25 1.29697V13.086L14.4141 14.7735C14.4844 14.8204 14.5781 14.8204 14.6484 14.7735C14.7188 14.7267 14.7656 14.6563 14.7656 14.5626V3.31259C14.7656 3.21884 14.7188 3.14853 14.6484 3.10165Z" fill="#5E72E4"/>
</svg>
