<svg width="15" height="16" viewBox="0 0 15 16" fill="none" xmlns="http://www.w3.org/2000/svg">
<path d="M14.0623 4.56239H11.5623V11.4374C11.5623 11.7827 11.2826 12.0624 10.9373 12.0624H4.06226V14.5624C4.06226 14.9077 4.34194 15.1874 4.68726 15.1874H14.0623C14.4076 15.1874 14.6873 14.9077 14.6873 14.5624V5.18739C14.6873 4.84208 14.4076 4.56239 14.0623 4.56239Z" fill="#FB6340"/>
<path d="M10.3119 11.4373H0.93689C0.591577 11.4373 0.31189 11.1576 0.31189 10.8123V1.43733C0.31189 1.09202 0.591577 0.812332 0.93689 0.812332H10.3119C10.6572 0.812332 10.9369 1.09202 10.9369 1.43733V10.8123C10.9369 11.1576 10.6572 11.4373 10.3119 11.4373Z" fill="#FB6340"/>
</svg>
